<?xml version="1.0" encoding="UTF-8" standalone="no"?>
<!DOCTYPE svg PUBLIC "-//W3C//DTD SVG 1.1//EN" "http://www.w3.org/Graphics/SVG/1.1/DTD/svg11.dtd">
<svg width="100%" height="100%" viewBox="0 0 2049 2048" version="1.1" xmlns="http://www.w3.org/2000/svg" xmlns:xlink="http://www.w3.org/1999/xlink" xml:space="preserve" xmlns:serif="http://www.serif.com/" style="fill-rule:evenodd;clip-rule:evenodd;stroke-linejoin:round;stroke-miterlimit:2;">
    <g transform="matrix(1,0,0,1,-4354,0)">
        <g id="MasterTechLogoIconOnlyT" transform="matrix(2.93798,0,0,2.93798,-2564.26,68.9993)">
            <rect x="2355.02" y="-23.485" width="697.078" height="697.078" style="fill:none;"/>
            <g transform="matrix(1.63314,0,0,1.63314,-6208.83,-1635.34)">
                <path d="M5453.11,1250.38L5427.33,1250.38L5406.67,1225.18L5393.05,1225.18L5393.05,1157.7L5400.85,1157.7L5414.07,1171.66L5414.07,1223.33L5430.41,1242.21L5453.11,1242.21L5453.11,1142.85L5425.19,1114.93L5301.94,1114.93L5344.71,1157.7L5345.51,1157.7L5345.51,1230.22L5404.37,1285.83L5453.11,1285.83L5453.11,1250.38ZM5461.28,1242.21L5461.28,1142.85L5489.19,1114.93L5612.44,1114.93L5569.68,1157.7L5568.87,1157.7L5568.87,1230.22L5510.01,1285.83L5461.28,1285.83L5461.28,1250.38L5487.06,1250.38L5508.23,1225.69L5521.34,1225.18L5521.34,1157.7L5511.44,1157.7L5500.32,1170.11L5500.32,1223.33L5483.97,1242.21L5461.28,1242.21Z" style="fill:rgb(0,148,255);"/>
            </g>
        </g>
    </g>
</svg>
